<?xml version="1.0" standalone="no"?>
<!DOCTYPE svg PUBLIC "-//W3C//DTD SVG 1.1//EN" "http://www.w3.org/Graphics/SVG/1.1/DTD/svg11.dtd" >
<svg xmlns="http://www.w3.org/2000/svg">
<metadata></metadata>
<defs>
<font id="lineto-akkuratmono-regular" horiz-adv-x="1269" >
<font-face units-per-em="2048" ascent="1448" descent="-600" />
<missing-glyph horiz-adv-x="500" />
<glyph unicode="fi" d="M109 889v147h194v140q0 120 84 210q106 113 279 113q174 0 278 -100q90 -90 90 -215h-178q0 54 -35 98q-50 64 -155 64q-95 0 -148 -60q-39 -45 -39 -123v-127h563v-1036h-174v889h-389v-889h-176v889h-194z" />
<glyph unicode="fl" d="M80 889v147h209v107q0 57 20.5 113t62 107.5t117 83.5t173.5 32h362v-1479h-176v1321h-186q-96 0 -148 -55q-49 -52 -49 -136v-94h227v-147h-227v-889h-176v889h-209z" />
<glyph unicode=" " />
<glyph unicode="!" d="M492 0v293h286v-293h-286zM526 1034v418h215v-418l-45 -594h-123z" />
<glyph unicode="&#x22;" d="M328 1171v281h233v-281l-45 -342h-145zM709 1171v281h233v-281l-43 -342h-145z" />
<glyph unicode="#" d="M66 393v137h268l49 365h-250v139h270l54 389h137l-51 -389h282l54 389h139l-53 -389h249v-139h-270l-47 -365h250v-137h-273l-51 -391h-141l53 391h-282l-54 -391h-139l53 391h-247zM473 530h283l49 365h-285z" />
<glyph unicode="$" d="M88 461h191q0 -63 28 -124.5t74 -105.5q74 -71 213 -88v510l-64 11q-173 26 -278 123t-105 262q0 169 123 286q133 127 324 142v159h115v-161q182 -16 309 -136q133 -127 139 -311h-190q-6 106 -72 182q-67 79 -186 97v-484l75 -12q185 -27 292.5 -135t107.5 -277 q0 -160 -123 -280q-131 -128 -352 -144v-153h-115v153q-218 15 -350 138q-72 67 -114 157.5t-42 190.5zM336 1053q0 -92 61 -142.5t152 -62.5l45 -6v467q-125 -12 -203 -99q-55 -64 -55 -157zM709 143q133 9 211 82q73 67 73 170q0 90 -58 152.5t-181 81.5l-45 6v-492z" />
<glyph unicode="%" d="M39 1151q0 135 84 226t225 91q140 0 231 -91t91 -226q0 -141 -94.5 -230.5t-227.5 -89.5q-129 0 -219 91.5t-90 228.5zM113 412l987 723l69 -101l-987 -723zM174 1151q0 -78 49.5 -133t124.5 -55q76 0 128 55.5t52 132.5t-52 130.5t-128 53.5t-125 -53t-49 -131zM584 299 q0 135 84 225t225 90q140 0 230.5 -90t90.5 -225q0 -141 -94 -230t-227 -89q-129 0 -219 91t-90 228zM719 299q0 -78 49.5 -133t124.5 -55q76 0 128 55.5t52 132.5t-52 130.5t-128 53.5t-125 -53t-49 -131z" />
<glyph unicode="&#x26;" d="M53 379q0 98 59.5 200.5t149.5 159.5q11 7 31 23t33 24l-72 86q-53 63 -80 126t-27 143q0 62 24.5 121.5t69.5 108t114.5 78.5t152.5 30q168 0 266 -95.5t98 -248.5q0 -191 -182 -318q-65 -49 -100 -69l301 -340q9 17 16.5 37t13 45t9 45.5t6 51.5t4 50t2 53t0.5 48v49 v42h291v-149h-127q0 -108 -26 -222t-74 -182l245 -276h-219l-125 141q-69 -80 -184 -124t-231 -44q-188 0 -308 105q-131 115 -131 301zM225 383q0 -122 90 -193q72 -55 166 -55q95 0 179 33.5t135 97.5l-363 404q-15 -9 -38.5 -28t-37.5 -28q-56 -35 -93.5 -101t-37.5 -130 zM317 1143q0 -99 74 -180q57 -66 86 -97l119 76q109 71 109 191q0 79 -55 137.5t-146 58.5q-76 0 -131.5 -57t-55.5 -129z" />
<glyph unicode="'" d="M518 1171v281h234v-281l-43 -342h-146z" />
<glyph unicode="(" d="M444 659q0 255 90 510.5t254 440.5l109 -76q-151 -199 -226 -412.5t-75 -462.5t75 -462t226 -412l-109 -76q-164 185 -254 440t-90 510z" />
<glyph unicode=")" d="M373 -215q151 199 226 412t75 462t-75 462.5t-226 412.5l108 76q164 -185 254 -440.5t90 -510.5t-90 -510t-254 -440z" />
<glyph unicode="*" d="M203 1049l53 161l313 -123l-16 338h170l-21 -338l316 123l51 -161l-326 -84l213 -265l-137 -98l-184 285l-182 -285l-138 103l213 260z" />
<glyph unicode="+" d="M72 549v141h491v506h144v-506h493v-141h-493v-539h-144v539h-491z" />
<glyph unicode="," d="M479 -279q96 41 130 103t34 176h-162v305h310v-305q0 -148 -56 -244.5t-190 -152.5z" />
<glyph unicode="-" d="M270 537v161h731v-161h-731z" />
<glyph unicode="." d="M483 -2v309h303v-309h-303z" />
<glyph unicode="/" d="M66 -27l978 1506h150l-979 -1506h-149z" />
<glyph unicode="0" d="M160 713q0 229 34 374t134 246q119 119 307 119t307 -119q100 -101 134 -246t34 -374t-34 -373.5t-134 -245.5q-121 -121 -307 -121t-307 121q-100 101 -134 245.5t-34 373.5zM340 713q0 -183 6 -242l535 655q-25 61 -70 103q-68 65 -176 65t-176 -65q-35 -33 -59 -82 t-35.5 -91t-17.5 -114t-6.5 -109.5t-0.5 -119.5zM395 287q24 -53 64 -90q69 -66 176 -66t176 66q35 33 59 82t35.5 91t17.5 114t6.5 109.5t0.5 119.5q0 153 -6 227z" />
<glyph unicode="1" d="M213 0v160h387v1065l-385 -232v187l393 243h168v-1263h385v-160h-948z" />
<glyph unicode="2" d="M215 1036q0 186 118.5 301t307.5 115q115 0 207 -43.5t147 -120.5q66 -94 66 -221q0 -154 -121 -303l-496 -600h639v-164h-866v150l588 710q78 94 78 205q0 108 -63.5 168.5t-176.5 60.5q-50 0 -93 -14.5t-78.5 -44t-56 -80.5t-20.5 -119h-180z" />
<glyph unicode="3" d="M166 408h178q6 -126 74 -197q73 -80 200 -80q140 0 213 82q68 75 68 180q0 127 -82 195.5t-217 68.5h-92v162h92q124 0 196 64t72 176q0 102 -67 166q-69 69 -180 69t-181 -57q-83 -68 -86 -201h-178q3 202 137 314q124 102 312 102q89 0 170.5 -30.5t138.5 -84.5 q115 -105 115 -278q0 -99 -60.5 -192t-148.5 -130q110 -37 173.5 -135t63.5 -213q0 -173 -108 -287q-123 -129 -351 -129q-202 0 -331 129q-118 118 -121 306z" />
<glyph unicode="4" d="M113 303v189l561 931h188l-577 -962h501v424h177v-424h192v-158h-192v-303h-177v303h-673z" />
<glyph unicode="5" d="M195 410h174q6 -127 82 -203t211 -76q139 0 212 94q72 90 72 236q0 153 -82 244q-73 79 -202 79q-75 0 -140.5 -32.5t-101.5 -92.5h-195l39 764h787v-157h-637l-23 -455q45 66 126.5 97.5t178.5 31.5q183 0 297 -117q129 -132 129 -354q0 -225 -121 -358 q-126 -140 -337 -140q-103 0 -189.5 32.5t-146.5 90.5q-124 121 -133 316z" />
<glyph unicode="6" d="M184 692q0 366 119 557q57 89 150 146t219 57q90 0 168 -30t133 -85q108 -108 114 -258h-176q-6 98 -80 162q-62 53 -165 53q-116 0 -197 -92q-105 -119 -109 -430q33 72 128 119t198 47q94 0 173 -30t132 -81q70 -67 108 -162t38 -206q0 -204 -131 -348 q-59 -64 -147 -101t-195 -37q-113 0 -204.5 50.5t-148.5 128.5q-127 176 -127 540zM383 457q0 -144 88 -238q81 -88 201 -88q127 0 202 82q87 93 87 244q0 146 -87 243q-72 82 -206 82q-126 0 -203 -88q-82 -91 -82 -237z" />
<glyph unicode="7" d="M166 1266v157h954v-157l-598 -1266h-188l598 1266h-766z" />
<glyph unicode="8" d="M168 391q0 115 61.5 210t161.5 140q-88 46 -141 133t-53 189q0 165 116 274q60 55 144 85t178 30t177.5 -30t143.5 -85q117 -110 117 -274q0 -102 -53 -189t-141 -133q100 -45 161.5 -140t61.5 -210q0 -150 -94 -262q-62 -74 -161 -115t-212 -41t-212 41t-161 115 q-94 112 -94 262zM344 399q0 -124 82 -198t209 -74t209 74t82 198q0 116 -79.5 191.5t-211.5 75.5t-211.5 -75.5t-79.5 -191.5zM373 1063q0 -102 71.5 -174t190.5 -72t190.5 72t71.5 174q0 106 -76.5 170.5t-185.5 64.5t-185.5 -64.5t-76.5 -170.5z" />
<glyph unicode="9" d="M156 967q0 204 131 348q59 64 147 100.5t195 36.5q113 0 205 -49.5t149 -126.5q70 -97 96.5 -233t26.5 -310q0 -376 -119 -567q-55 -86 -152 -139.5t-225 -53.5q-187 0 -301 117q-108 108 -114 256h176q5 -96 80 -160q61 -55 165 -55q126 0 201 86q109 123 113 436 q-33 -72 -127 -119t-197 -47q-94 0 -173 30t-132 81q-145 139 -145 369zM332 969q0 -148 86 -244q72 -82 207 -82q129 0 204 86q82 91 82 240q0 147 -86 239q-79 86 -204 86q-128 0 -203 -82q-86 -92 -86 -243z" />
<glyph unicode=":" d="M489 -2v297h291v-297h-291zM489 739v297h291v-297h-291z" />
<glyph unicode=";" d="M479 -281q96 41 130 103t34 176h-154v297h302v-297q0 -148 -56 -244.5t-190 -152.5zM489 739v297h291v-297h-291z" />
<glyph unicode="&#x3c;" d="M176 653l678 688l119 -120l-578 -568l576 -563l-119 -121z" />
<glyph unicode="=" d="M141 274v162h987v-162h-987zM141 700v162h987v-162h-987z" />
<glyph unicode="&#x3e;" d="M297 90l575 563l-575 568l117 120l678 -688l-676 -684z" />
<glyph unicode="?" d="M184 1034q0 88 30 168t86 143.5t145 101.5t198 38q117 0 214 -45.5t156.5 -135.5t59.5 -208t-55.5 -207t-165.5 -170q-93 -68 -119 -124t-26 -157v-45h-168v51q0 82 12 139t43 105.5t68.5 83.5t105.5 88q65 50 95 104t30 134q0 90 -62 155q-71 74 -188 74 q-129 0 -201.5 -83.5t-72.5 -209.5h-185zM492 0v274h268v-274h-268z" />
<glyph unicode="@" d="M121 432v475q0 89 23 173.5t68 156.5t107.5 126t147 85t180.5 31q224 0 362 -141t138 -369v-678h-119l-29 90q-69 -117 -233 -117q-101 0 -177.5 55t-114.5 145t-38 200q0 51 10.5 103t36 106.5t64 95.5t100.5 67.5t139 26.5q50 0 108.5 -20t86.5 -60q0 153 -90.5 247.5 t-243.5 94.5q-115 0 -199.5 -60t-124.5 -154t-40 -208v-465q0 -117 42.5 -211.5t131.5 -153.5t213 -59q144 0 264 56v-146q-108 -63 -262 -63q-169 0 -296 79t-191 207.5t-64 284.5zM600 664q0 -45 11 -88.5t33 -81.5t60 -61t87 -23q98 0 152 74.5t54 179.5q0 51 -10 95 t-31.5 83t-60.5 61.5t-92 22.5q-98 0 -150.5 -78t-52.5 -184z" />
<glyph unicode="A" d="M47 0l477 1452h221l480 -1452h-189l-121 375h-563l-119 -375h-186zM406 547h456l-231 719z" />
<glyph unicode="B" d="M213 0v1452h487q231 0 349 -127q90 -97 90 -248q0 -108 -55.5 -196.5t-153.5 -124.5q110 -36 175.5 -134t65.5 -216q0 -163 -106 -277q-59 -64 -156 -96.5t-209 -32.5h-487zM391 168h309q129 0 207 60.5t78 189.5q0 117 -81 186.5t-206 69.5h-307v-506zM391 834h303 q120 0 189 56t69 173q0 109 -75.5 168t-186.5 59h-299v-456z" />
<glyph unicode="C" d="M109 725q0 96 5 164.5t22 152t54.5 154t96.5 127.5q159 156 375 156q213 0 362 -135.5t158 -346.5h-191q-3 59 -26 114t-58 91q-94 105 -245 105q-138 0 -246 -111q-34 -35 -58 -82.5t-35.5 -88.5t-17.5 -102.5t-7 -97t-1 -100.5t1 -100.5t7 -97t17.5 -102.5t35.5 -88.5 t58 -82.5q108 -111 246 -111q139 0 234.5 90.5t98.5 229.5h189q-9 -211 -159 -351.5t-363 -140.5q-216 0 -375 156q-59 57 -96.5 127.5t-54.5 154t-22 152t-5 164.5z" />
<glyph unicode="D" d="M176 0v1452h432q164 0 282.5 -60.5t182.5 -164.5q57 -91 77.5 -211t20.5 -287t-21.5 -293t-78.5 -217q-64 -103 -181 -161t-282 -58h-432zM358 168h250q180 0 275 102q34 37 56 87.5t31.5 116t12 119.5t2.5 136q0 83 -3 138.5t-13 120t-33 114t-59 86.5q-93 96 -269 96 h-250v-1116z" />
<glyph unicode="E" d="M205 0v1452h960v-168h-778v-442h588v-172h-588v-502h778v-168h-960z" />
<glyph unicode="F" d="M225 0v1452h973v-168h-790v-473h626v-172h-626v-639h-183z" />
<glyph unicode="G" d="M68 725q0 412 196 604q153 150 371 150q243 0 389 -166q109 -122 117 -281h-191q-6 109 -84 187q-88 88 -231 88q-146 0 -244 -101q-135 -140 -135 -481q0 -70 3.5 -122.5t14.5 -124.5t38.5 -132t70.5 -104q54 -56 109.5 -77.5t136.5 -21.5q144 0 241 97q117 115 117 372 h-375v170h543v-782h-127l-31 164q-41 -70 -127 -123q-116 -70 -241 -70q-228 0 -371 140q-105 102 -147.5 253t-42.5 361z" />
<glyph unicode="H" d="M141 0v1452h185v-606h616v606h186v-1452h-186v670h-616v-670h-185z" />
<glyph unicode="I" d="M221 0v152h322v1151h-322v149h828v-149h-322v-1151h322v-152h-828z" />
<glyph unicode="J" d="M119 440h184q0 -149 94 -237q63 -60 176 -60q122 0 188 72t66 195v1042h183v-1042q0 -185 -122.5 -311t-314.5 -126q-97 0 -183 35t-142 92q-129 132 -129 340z" />
<glyph unicode="K" d="M172 0v1452h184v-745l654 745h225l-504 -573l506 -879h-215l-420 731l-246 -280v-451h-184z" />
<glyph unicode="L" d="M272 0v1452h183v-1282h749v-170h-932z" />
<glyph unicode="M" d="M125 0v1452h225l289 -811l283 811h223v-1452h-176v1145l-252 -705h-164l-252 701v-1141h-176z" />
<glyph unicode="N" d="M143 0v1452h228l579 -1173v1173h176v-1452h-223l-581 1167v-1167h-179z" />
<glyph unicode="O" d="M80 725q0 99 5.5 171t22.5 153t54 148.5t94 123.5q161 158 379 158t379 -158q57 -56 94 -123.5t54 -148.5t22.5 -153t5.5 -171t-5.5 -171t-22.5 -153t-54 -148.5t-94 -123.5q-161 -158 -379 -158t-379 158q-57 56 -94 123.5t-54 148.5t-22.5 153t-5.5 171zM268 725 q0 -60 0.5 -81.5t3 -78t9.5 -88t19 -76.5t33 -80t50 -65q108 -111 252 -111t252 111q33 34 56 80t34 85t17 98.5t6.5 93t0.5 94.5v18q0 176 -14 254q-24 137 -100 215q-108 111 -252 111t-252 -111q-29 -30 -50 -65t-33 -80t-19 -76.5t-9.5 -88t-3 -78t-0.5 -81.5z" />
<glyph unicode="P" d="M195 0v1452h522q126 0 227 -36.5t160 -100.5q113 -123 113 -301q0 -201 -123 -324q-59 -59 -157.5 -93t-217.5 -34h-342v-563h-182zM377 729h338q150 0 231.5 71t81.5 214q0 133 -87 202.5t-228 69.5h-336v-557z" />
<glyph unicode="Q" d="M80 725q0 99 5.5 171t22.5 153t54 148.5t94 123.5q161 158 379 158t379 -158q57 -56 94 -123.5t54 -148.5t22.5 -153t5.5 -171q0 -97 -5.5 -168t-22 -150t-51 -145.5t-87.5 -122.5l137 -176l-121 -94l-135 176q-124 -74 -270 -74q-218 0 -379 158q-57 56 -94 123.5 t-54 148.5t-22.5 153t-5.5 171zM268 725q0 -60 0.5 -81.5t3 -78t9.5 -88t19 -76.5t33 -80t50 -65q108 -111 252 -111q89 0 160 41l-170 220l118 92l168 -213q33 44 53 96t27.5 122.5t8.5 105.5t1 116q0 176 -14 254q-24 137 -100 215q-108 111 -252 111t-252 -111 q-29 -30 -50 -65t-33 -80t-19 -76.5t-9.5 -88t-3 -78t-0.5 -81.5z" />
<glyph unicode="R" d="M184 0v1452h498q243 0 369 -129q114 -121 114 -295q0 -171 -110 -287q-62 -65 -174 -102l290 -639h-198l-275 604h-331v-604h-183zM367 774h315q137 0 216 61t79 193t-79 194t-216 62h-315v-510z" />
<glyph unicode="S" d="M76 459h190q0 -63 28 -124.5t73 -105.5q92 -88 272 -88q175 0 266 84q74 67 74 170q0 90 -58.5 152.5t-181.5 81.5l-223 35q-173 26 -278 123t-105 262q0 169 123 286q153 144 375 144q231 0 373 -136q131 -125 137 -313h-191q-6 106 -69 178q-90 103 -252 103t-252 -103 q-55 -64 -55 -155q0 -92 61 -142.5t152 -62.5q47 -6 129 -19.5t106 -17.5q184 -27 291.5 -135t107.5 -277q0 -165 -120 -282q-73 -71 -181 -107.5t-229 -36.5q-262 0 -412 138q-70 66 -110.5 156.5t-40.5 191.5z" />
<glyph unicode="T" d="M49 1282v170h1172v-170h-492v-1282h-186v1282h-494z" />
<glyph unicode="U" d="M125 528v924h182v-926q0 -177 78.5 -279t249.5 -102q87 0 151 28.5t101.5 80.5t55.5 119.5t18 152.5v926h182v-924q0 -254 -130.5 -404.5t-379.5 -150.5q-166 0 -282 71.5t-171 194.5t-55 289z" />
<glyph unicode="V" d="M76 1452h194l369 -1241l362 1241h193l-451 -1452h-217z" />
<glyph unicode="W" d="M78 1452h172l74 -1184l229 768h170l229 -766l72 1182h172l-100 -1452h-219l-242 801l-236 -801h-221z" />
<glyph unicode="X" d="M68 0l460 733l-460 719h208l363 -567l358 567h203l-459 -719l461 -733h-207l-364 590l-361 -590h-202z" />
<glyph unicode="Y" d="M45 1452h205l391 -694l389 694h195l-498 -862v-590h-184v590z" />
<glyph unicode="Z" d="M143 0v182l799 1100h-786v170h993v-184l-801 -1098h807v-170h-1012z" />
<glyph unicode="[" d="M485 -233v1783h467v-127h-325v-1529h325v-127h-467z" />
<glyph unicode="\" d="M72 1479h149l979 -1506h-149z" />
<glyph unicode="]" d="M317 -106h324v1529h-324v127h467v-1783h-467v127z" />
<glyph unicode="^" d="M213 831l346 650h158l342 -650h-189l-233 455l-238 -455h-186z" />
<glyph unicode="_" d="M129 0h1014v-162h-1014v162z" />
<glyph unicode="`" d="M401 1362l107 149l360 -288l-73 -101z" />
<glyph unicode="a" d="M170 279q0 60 21.5 116t64.5 104.5t116.5 80t168.5 36.5l323 19v76q0 101 -53 149q-64 60 -174 60q-124 0 -188 -64q-51 -51 -56 -121h-172q3 120 96 213q54 54 139.5 84.5t180.5 30.5q143 0 236 -57t133 -148q30 -71 30 -153v-502q0 -70 62 -70l45 6v-129 q-49 -24 -115 -24q-68 0 -111 45t-43 112h-4q-46 -78 -139.5 -124t-202.5 -46q-89 0 -160 27t-113 71.5t-63.5 97.5t-21.5 110zM348 293q0 -75 51.5 -123.5t155.5 -48.5q136 0 217 84q92 95 92 233v62l-286 -17q-60 -3 -109.5 -22t-85 -62.5t-35.5 -105.5z" />
<glyph unicode="b" d="M217 0v1479h174v-564q43 65 128 106.5t181 41.5q171 0 293 -113q77 -74 117.5 -186.5t40.5 -247.5q0 -129 -39.5 -239t-112.5 -185q-116 -119 -299 -119q-93 0 -184 43.5t-133 118.5l-12 -135h-154zM381 518q0 -222 117 -325q75 -68 174 -68q120 0 194 74 q107 107 107 319q0 202 -111 313q-80 80 -190 80q-100 0 -174 -67q-117 -103 -117 -326z" />
<glyph unicode="c" d="M170 518q0 261 160 418q59 58 143.5 92.5t179.5 34.5q91 0 170.5 -30t134.5 -83q118 -115 129 -264h-176q-10 88 -82 160q-31 30 -78.5 47.5t-97.5 17.5q-112 0 -192 -73q-113 -103 -113 -320q0 -214 113 -317q83 -76 192 -76q50 0 97.5 17.5t78.5 47.5q75 74 84 160h174 q-11 -149 -131 -266q-114 -111 -303 -111q-95 0 -179.5 34.5t-143.5 92.5q-160 157 -160 418z" />
<glyph unicode="d" d="M127 516q0 276 160 430q126 117 295 117q95 0 178 -41t127 -107v564h174v-1479h-154l-12 135q-42 -75 -133 -118.5t-184 -43.5q-92 0 -170.5 33t-131.5 88q-149 152 -149 422zM305 518q0 -210 109 -319q74 -74 192 -74q102 0 174 65q117 103 117 328t-117 328 q-72 65 -174 65q-110 0 -190 -80q-111 -111 -111 -313z" />
<glyph unicode="e" d="M160 514q0 123 39.5 231.5t113.5 184.5q133 133 330 133q96 0 179.5 -33.5t140.5 -91.5q72 -74 110.5 -182.5t38.5 -231.5v-61h-774q0 -72 25.5 -141t78.5 -119q81 -78 199 -78q66 0 108 14.5t82 46.5q66 52 87 125h167q-36 -159 -157 -248.5t-287 -89.5q-189 0 -328 136 q-153 150 -153 405zM344 606h584q-3 135 -88 223q-81 84 -199 84q-71 0 -129 -30.5t-93 -77.5t-54 -98.5t-21 -100.5z" />
<glyph unicode="f" d="M135 889v147h342v121q0 156 96 249t258 93q145 0 265 -51v-162q-46 23 -117 41.5t-127 18.5q-96 0 -147.5 -53t-51.5 -136v-121h451v-147h-451v-889h-176v889h-342z" />
<glyph unicode="g" d="M176 -182q0 78 41.5 139t106.5 94q-53 21 -86 68t-33 106q0 66 39.5 119t101.5 82q-121 101 -121 268q0 148 101 252q114 117 311 117q142 0 242 -62q26 69 83.5 107.5t131.5 38.5q19 0 51 -4v-142q-15 3 -39 3q-49 0 -84.5 -27.5t-44.5 -67.5q70 -90 70 -215 q0 -140 -95 -245q-53 -58 -134.5 -91.5t-180.5 -33.5q-88 0 -180 32q-33 -10 -60 -36t-30 -60q-2 -32 11.5 -53.5t39 -31.5t49.5 -13.5t53 -3.5h228q231 0 337 -109q80 -80 80 -203q0 -118 -88 -206q-126 -123 -424 -123q-281 0 -399 118q-78 78 -78 183zM334 -154 q0 -65 43 -108q31 -31 87 -48.5t98.5 -20.5t101.5 -3q210 0 284 74q47 47 47 106q0 30 -8 54.5t-22 41t-33 29.5t-42 19.5t-48 11.5t-51.5 6t-52.5 2t-50 0h-6.5h-6h-6h-5.5h-199q-56 -18 -93.5 -62.5t-37.5 -101.5zM393 694q0 -99 68.5 -165t173.5 -66t173.5 66t68.5 165 q0 100 -66.5 164t-175.5 64t-175.5 -64t-66.5 -164z" />
<glyph unicode="h" d="M219 0v1481h176v-582q44 76 133.5 120t182.5 44q176 0 272 -100t96 -281v-682h-176v657q0 248 -235 248q-73 0 -135 -44.5t-97 -117.5q-41 -89 -41 -266v-477h-176z" />
<glyph unicode="i" d="M227 0v150h375v739h-334v147h510v-886h377v-150h-928zM557 1233v246h248v-246h-248z" />
<glyph unicode="j" d="M276 -231q117 -52 224 -52q96 0 142 54t46 143v975h-412v147h588v-1134q0 -144 -89 -241t-255 -97q-136 0 -244 49v156zM643 1233v246h246v-246h-246z" />
<glyph unicode="k" d="M266 0v1481h174v-965l496 520h231l-395 -411l410 -625h-205l-326 500l-211 -219v-281h-174z" />
<glyph unicode="l" d="M213 0v147h365v1186h-334v146h510v-1332h362v-147h-903z" />
<glyph unicode="m" d="M102 0v1036h142l16 -100q28 55 86.5 91t138.5 36q75 0 130 -43.5t73 -93.5q38 64 100.5 100.5t143.5 36.5q66 0 117 -23.5t81 -64t45 -89t15 -102.5v-784h-172v735q0 38 -5 66.5t-18 54.5t-39 39.5t-63 13.5q-49 0 -96 -47q-62 -64 -62 -250v-612h-164v723 q0 186 -135 186q-83 0 -122.5 -74.5t-39.5 -201.5v-633h-172z" />
<glyph unicode="n" d="M219 0v1036h154l14 -155q44 85 136 133.5t188 48.5q176 0 272 -100t96 -281v-682h-178v657q0 248 -227 248q-73 0 -136 -46.5t-98 -119.5q-45 -98 -45 -266v-473h-176z" />
<glyph unicode="o" d="M147 518q0 261 162 420q59 57 145.5 91t182.5 34t180.5 -34t143.5 -91q161 -158 161 -418q0 -264 -161 -422q-59 -57 -143.5 -91t-180.5 -34t-182.5 34t-145.5 91q-162 159 -162 420zM326 520q0 -216 116 -321q81 -74 193 -74q111 0 192 74q117 106 117 319 q0 214 -117 320q-80 73 -192 73q-113 0 -193 -73q-116 -105 -116 -318z" />
<glyph unicode="p" d="M217 -424v1460h154l12 -137q42 75 133 118.5t184 43.5q91 0 168 -33.5t131 -89.5q152 -155 152 -420q0 -135 -40.5 -247.5t-117.5 -186.5q-122 -113 -293 -113q-96 0 -181 41.5t-128 106.5v-543h-174zM381 516q0 -223 117 -326q72 -65 174 -65q116 0 192 76 q109 109 109 315q0 211 -107 318q-77 77 -194 77q-100 0 -174 -67q-117 -103 -117 -328z" />
<glyph unicode="q" d="M127 518q0 265 152 420q54 56 131 89.5t168 33.5q93 0 184 -43.5t133 -118.5l12 137h154v-1460h-174v543q-44 -66 -127 -107t-178 -41q-169 0 -295 117q-160 154 -160 430zM305 516q0 -202 111 -313q80 -80 190 -80q100 0 174 67q117 103 117 326t-117 326 q-74 67 -174 67q-110 0 -190 -80q-111 -111 -111 -313z" />
<glyph unicode="r" d="M307 0v1036h154l14 -155q47 90 136 136t192 46q98 0 173 -42.5t122 -109.5q65 -96 65 -225h-178q0 91 -55 152q-60 67 -164 67q-75 0 -140.5 -50.5t-97.5 -125.5q-45 -106 -45 -268v-461h-176z" />
<glyph unicode="s" d="M188 334h174q3 -93 91 -160q68 -51 200 -51q134 0 203 59q51 40 51 107q0 55 -37 93.5t-116 49.5l-265 39q-118 18 -190 96q-61 70 -61 178q0 115 84 199q52 54 136 86.5t179 32.5q108 0 198.5 -35.5t143.5 -103.5q67 -85 72 -197h-174q-3 75 -62 127q-67 61 -178 61 t-176 -51q-58 -49 -58 -108q0 -107 138 -129l280 -43q105 -15 182.5 -88.5t77.5 -194.5q0 -122 -82 -207q-58 -60 -151.5 -90.5t-202.5 -30.5q-230 0 -354 121q-48 46 -75.5 110t-27.5 130z" />
<glyph unicode="t" d="M125 887v149h324v269l174 55v-324h434v-149h-434v-565q0 -85 47.5 -136t136.5 -51q69 0 126 17t136 53v-154q-131 -74 -287 -74q-84 0 -149.5 27.5t-104.5 74.5t-59 104.5t-20 121.5v582h-324z" />
<glyph unicode="u" d="M205 354v682h176v-657q0 -248 229 -248q111 0 190 87.5t79 215.5v602h176v-1036h-154l-14 156q-38 -85 -130.5 -134t-187.5 -49q-163 0 -263.5 104t-100.5 277z" />
<glyph unicode="v" d="M125 1034h190l330 -862l318 862h182l-404 -1034h-206z" />
<glyph unicode="w" d="M88 1034h166l106 -825l193 557h164l194 -555l109 823h164l-144 -1034h-209l-196 584l-199 -584h-207z" />
<glyph unicode="x" d="M131 0l383 528l-381 508h215l291 -389l279 389h208l-376 -508l387 -528h-213l-293 412l-291 -412h-209z" />
<glyph unicode="y" d="M115 1036h215l334 -823l309 823h198l-507 -1249q-44 -108 -110.5 -165.5t-176.5 -57.5q-116 0 -187 39v149q82 -31 150 -31q58 0 97 24.5t61 80.5l69 174z" />
<glyph unicode="z" d="M217 0v154l633 729h-633v151h846v-153l-631 -729h637v-152h-852z" />
<glyph unicode="{" d="M360 580v147q47 6 91.5 23t80 53t35.5 84v315q0 91 14.5 153.5t50 108.5t98.5 67t157 21h53v-129h-53q-105 0 -141.5 -49.5t-36.5 -159.5v-329q0 -184 -193 -221v-5q86 -21 139.5 -77t53.5 -140v-329q0 -50 8.5 -89t28 -71.5t55.5 -50t88 -17.5h53v-129h-55 q-175 0 -247.5 86.5t-72.5 261.5v320q0 40 -18.5 70.5t-50.5 47.5t-65.5 26t-72.5 12z" />
<glyph unicode="|" d="M555 -233v1783h160v-1783h-160z" />
<glyph unicode="}" d="M328 -115h53q52 0 88 17.5t55.5 50t28 71.5t8.5 89v329q0 84 53.5 140t139.5 77v5q-193 37 -193 221v329q0 110 -36.5 159.5t-141.5 49.5h-53v129h53q94 0 156.5 -21t98 -67t50 -108t14.5 -154v-315q0 -48 35.5 -84t80 -53t91.5 -23v-147q-207 -18 -207 -156v-320 q0 -176 -72 -262t-247 -86h-55v129z" />
<glyph unicode="~" d="M135 614q90 95 156 127.5t145 32.5q71 0 164 -35q25 -9 77 -33.5t79 -33.5q46 -17 80 -17q50 0 93.5 18.5t104.5 80.5l103 -117q-92 -95 -157.5 -127.5t-143.5 -32.5q-96 0 -240 70q-38 19 -54.5 26.5t-49 17t-58.5 9.5q-50 0 -93.5 -18.5t-104.5 -81.5z" />
<glyph unicode="&#xa0;" />
<glyph unicode="&#xa1;" d="M489 741v295h285v-295h-285zM526 0l45 594h123l45 -594v-418h-213v418z" />
<glyph unicode="&#xa2;" d="M188 715q0 233 84 358q111 160 303 187v190h134v-188q161 -17 258.5 -119t109.5 -260h-180q-22 190 -188 221v-774q165 26 192 221h178q-12 -163 -107.5 -263.5t-262.5 -115.5v-174h-134v176q-100 14 -171 61t-125 125q-91 136 -91 355zM367 719q0 -327 208 -383v762 q-208 -55 -208 -379z" />
<glyph unicode="&#xa3;" d="M174 678v149h164v224q0 79 26.5 151t75 128.5t125 90t170.5 33.5q172 0 278.5 -105.5t106.5 -263.5h-174q0 96 -58 155.5t-157 59.5q-111 0 -164 -68.5t-53 -180.5v-224h330v-149h-330v-361q0 -54 -21 -99.5t-67 -57.5v-4l426 2q76 0 116 43.5t42 120.5h172 q0 -162 -86.5 -242t-249.5 -80h-670v162q162 3 162 164v352h-164z" />
<glyph unicode="&#xa4;" d="M98 106l164 140q-88 126 -88 274q0 149 88 275l-164 133l135 135l138 -158q121 82 268 82q144 0 262 -82l141 160l134 -137l-160 -133q86 -123 86 -275q0 -151 -86 -274l160 -140l-132 -131l-143 160q-120 -84 -262 -84t-266 84l-142 -160zM340 520q0 -127 80.5 -218 t218.5 -91q140 0 218.5 87.5t78.5 221.5q0 131 -81 219t-216 88q-146 0 -222.5 -84.5t-76.5 -222.5z" />
<glyph unicode="&#xa5;" d="M92 1423h193l356 -632l348 632h189l-367 -641h270v-125h-356v-186h356v-125h-356v-346h-182v346h-334v125h334v186h-334v125h248z" />
<glyph unicode="&#xa6;" d="M557 -102v630h156v-630h-156zM557 922v632h156v-632h-156z" />
<glyph unicode="&#xa7;" d="M205 625q0 86 51 159t125 117q-84 97 -84 223q0 137 96 230q107 102 269 102q172 0 276 -110q94 -102 94 -256h-170q0 101 -53 159q-54 60 -147 60q-84 0 -139.5 -49.5t-55.5 -131.5q0 -94 86 -167l414 -351q71 -59 102 -125t31 -151q0 -86 -51 -159.5t-125 -117.5 q84 -97 84 -223q0 -139 -97 -233q-104 -99 -268 -99q-171 0 -276 111q-95 103 -95 256h170q0 -101 54 -160q53 -59 147 -59q84 0 139.5 49.5t55.5 130.5q0 95 -86 168l-414 350q-71 59 -102 125.5t-31 151.5zM377.5 585q15.5 -65 68.5 -110l377 -323q64 34 91.5 95t12 126 t-68.5 110l-377 324q-64 -34 -91.5 -95.5t-12 -126.5z" />
<glyph unicode="&#xa8;" d="M340 1227v209h209v-209h-209zM721 1227v209h209v-209h-209z" />
<glyph unicode="&#xa9;" d="M90 725q0 150 73 277.5t198.5 201.5t273.5 74t273.5 -74t198.5 -201.5t73 -277.5t-73 -277.5t-198.5 -201.5t-273.5 -74t-273.5 74t-198.5 201.5t-73 277.5zM195 725q0 -121 58.5 -223.5t160 -162.5t221.5 -60t221.5 60t160 162.5t58.5 223.5t-58.5 223.5t-160 162.5 t-221.5 60t-221.5 -60t-160 -162.5t-58.5 -223.5zM371 721q0 133 68 216t202 83q103 0 171 -58.5t75 -158.5h-113q-7 59 -43 88t-90 29q-83 0 -120.5 -55.5t-37.5 -141.5q0 -87 38 -144t120 -57q116 0 135 121h113q-7 -101 -74.5 -161t-173.5 -60q-128 0 -199 85t-71 214z " />
<glyph unicode="&#xaa;" d="M270 862q0 41 14.5 80.5t46 77t89.5 62.5t135 30l231 14v54q0 86 -36 118q-42 39 -127 39q-95 0 -140 -45q-37 -37 -37 -98h-137q3 128 91.5 193t222.5 65q110 0 180 -42t100 -112q21 -49 21 -122v-381q0 -29 10 -39.5t31 -10.5l36 5v-105q-39 -20 -90 -20t-83 32.5 t-35 81.5q-35 -57 -101 -90t-147 -33q-129 0 -202 72.5t-73 173.5zM414 866q0 -57 36.5 -94t114.5 -37q97 0 156 62q65 65 65 176v43l-204 -12q-69 -3 -118.5 -37.5t-49.5 -100.5z" />
<glyph unicode="&#xab;" d="M160 610l336 471l108 -77l-227 -392l229 -391l-110 -82zM635 610l336 471l108 -77l-227 -392l229 -391l-110 -82z" />
<glyph unicode="&#xac;" d="M113 541v157h993v-495h-160v338h-833z" />
<glyph unicode="&#xad;" d="M270 537v161h731v-161h-731z" />
<glyph unicode="&#xae;" d="M90 725q0 150 73 277.5t198.5 201.5t273.5 74t273.5 -74t198.5 -201.5t73 -277.5t-73 -277.5t-198.5 -201.5t-273.5 -74t-273.5 74t-198.5 201.5t-73 277.5zM195 725q0 -121 58.5 -223.5t160 -162.5t221.5 -60t221.5 60t160 162.5t58.5 223.5t-58.5 223.5t-160 162.5 t-221.5 60t-221.5 -60t-160 -162.5t-58.5 -223.5zM446 442v582h222q87 0 140.5 -50.5t53.5 -129.5q0 -120 -98 -168l102 -234h-112l-92 215h-111v-215h-105zM549 752h113q94 0 94 92q0 36 -25 61t-72 25h-110v-178z" />
<glyph unicode="&#xaf;" d="M350 1241v143h570v-143h-570z" />
<glyph unicode="&#xb0;" d="M297 1143q0 147 96 241.5t242 94.5t243 -94.5t97 -241.5t-97 -241.5t-243 -94.5t-242 94.5t-96 241.5zM451 1143q0 -84 52 -137.5t132 -53.5t133 53.5t53 137.5t-53 137t-133 53t-132 -53t-52 -137z" />
<glyph unicode="&#xb1;" d="M186 0v141h899v-141h-899zM186 680v143h379v379h144v-379h376v-143h-376v-383h-144v383h-379z" />
<glyph unicode="&#xb2;" d="M389 1221q3 108 70.5 170.5t175.5 62.5q97 0 162 -55t65 -150q0 -53 -19.5 -90.5t-60.5 -75.5l-53 -47l-135 -112h287v-119h-478v113l269 225q34 28 49.5 52.5t15.5 61.5q0 23 -12 41q-27 43 -94 43q-55 0 -84 -31.5t-31 -88.5h-127z" />
<glyph unicode="&#xb3;" d="M371 1008h123q1 -57 34.5 -87t89.5 -30q121 0 121 88q0 44 -28 70t-84 26h-52v103h50q29 0 47 6q53 14 53 84q0 36 -31 59t-76 23q-46 0 -81.5 -27t-36.5 -82h-123q0 92 59 148q64 61 185 61q131 0 190 -74q41 -48 41 -116q0 -42 -25 -82.5t-65 -53.5q46 -15 74 -56 t28 -87q0 -75 -43 -121q-68 -74 -203 -74q-126 0 -194 80q-53 60 -53 142z" />
<glyph unicode="&#xb4;" d="M401 1223l361 288l106 -149l-393 -240z" />
<glyph unicode="&#xb6;" d="M96 1067q0 160 112.5 272.5t272.5 112.5h670v-141h-141v-1567h-148v1567h-229v-1567h-152v936q-160 0 -272.5 113.5t-112.5 273.5z" />
<glyph unicode="&#xb7;" d="M483 475v309h303v-309h-303z" />
<glyph unicode="&#xb8;" d="M467 -408l168 289h168l-148 -373z" />
<glyph unicode="&#xb9;" d="M451 1194v141l167 117h117v-633h-127v484z" />
<glyph unicode="&#xba;" d="M285 1034q0 212 112 324q94 94 238 94q145 0 239 -94q111 -111 111 -324q0 -214 -111 -325q-95 -95 -239 -95q-143 0 -238 95q-112 112 -112 325zM430 1034q0 -170 70 -243q51 -54 135 -54q86 0 137 54q70 73 70 243q0 169 -70 242q-50 53 -137 53q-85 0 -135 -53 q-70 -73 -70 -242z" />
<glyph unicode="&#xbb;" d="M188 221l230 391l-228 392l109 77l336 -471l-336 -471zM664 221l229 391l-227 392l108 77l336 -471l-336 -471z" />
<glyph unicode="&#xbc;" d="M63 412l988 723l69 -101l-987 -723zM123 1194v141l170 117h115v-633h-127v486zM631 131v123l250 389h141l-254 -405h170v135h123v-135h102v-107h-102v-129h-123v129h-307z" />
<glyph unicode="&#xbd;" d="M63 412l988 723l69 -101l-987 -723zM123 1194v141l168 117h117v-633h-127v484zM659 418q3 108 70.5 170.5t175.5 62.5q98 0 164 -55t66 -150q0 -52 -20 -89t-62 -76l-54 -48l-135 -112h287v-119h-477v113l268 225q35 29 51.5 54t16.5 61q0 18 -15 41q-27 43 -94 43 q-54 0 -83.5 -32t-31.5 -89h-127z" />
<glyph unicode="&#xbe;" d="M82 1008h123q1 -57 35 -87t90 -30q121 0 121 88q0 43 -28.5 69.5t-84.5 26.5h-51v103h49q29 0 47 6q53 14 53 84q0 36 -30.5 59t-75.5 23q-46 0 -82 -27t-37 -82h-123q0 92 59 148q64 61 185 61q131 0 190 -74q41 -48 41 -116q0 -42 -25 -82.5t-65 -53.5q46 -15 74 -56 t28 -87q0 -75 -43 -121q-68 -74 -202 -74q-127 0 -195 80q-53 60 -53 142zM125 412l987 723l70 -101l-987 -723zM631 129v123l248 389h143l-254 -405h170v135h123v-135h102v-107h-102v-129h-123v129h-307z" />
<glyph unicode="&#xbf;" d="M197 -59q0 118 55.5 206.5t165.5 169.5q93 68 119 124t26 157v45h168v-51q0 -82 -12 -139t-43 -105.5t-68.5 -83.5t-105.5 -88q-65 -50 -95 -103.5t-30 -133.5q0 -92 61 -156q71 -74 189 -74q129 0 201.5 83.5t72.5 209.5h184q0 -88 -30 -168t-85.5 -143.5t-144.5 -101.5 t-198 -38q-180 0 -305 106.5t-125 283.5zM510 762v274h268v-274h-268z" />
<glyph unicode="&#xc0;" d="M47 0l477 1452h219l480 -1452h-187l-121 375h-563l-119 -375h-186zM397 1780l109 149l358 -289l-71 -98zM406 547h456l-231 719z" />
<glyph unicode="&#xc1;" d="M47 0l477 1452h219l480 -1452h-187l-121 375h-563l-119 -375h-186zM401 1638l361 291l106 -149l-393 -240zM406 547h456l-231 719z" />
<glyph unicode="&#xc2;" d="M47 0l477 1452h219l480 -1452h-187l-121 375h-563l-119 -375h-186zM303 1632l272 291h119l273 -291l-101 -90l-231 248l-232 -248zM406 547h456l-231 719z" />
<glyph unicode="&#xc3;" d="M47 0l477 1452h219l480 -1452h-187l-121 375h-563l-119 -375h-186zM279 1698q72 72 121 94.5t100 22.5q65 0 147 -46q3 -2 15 -8.5t15.5 -8.5t14.5 -7.5t16 -7.5l15 -6t17 -5t16 -2.5t18 -1.5q17 0 30.5 3.5t39.5 20t59 48.5l88 -102q-71 -71 -121 -93t-100 -22 q-77 0 -156 45q-79 43 -118 43q-32 0 -50 -8q-32 -13 -79 -60zM406 547h456l-231 719z" />
<glyph unicode="&#xc4;" d="M47 0l477 1452h219l480 -1452h-187l-121 375h-563l-119 -375h-186zM330 1595v209h209v-209h-209zM406 547h456l-231 719zM711 1595v209h209v-209h-209z" />
<glyph unicode="&#xc5;" d="M47 0l451 1372q-53 32 -83 87t-30 118q0 99 68 170.5t180 71.5t181 -72t69 -170q0 -62 -30 -117t-83 -88l453 -1372h-187l-121 375h-563l-119 -375h-186zM406 547h456l-231 719zM510 1577q0 -53 34 -89t89 -36t89 36t34 89t-34 90t-89 37t-89 -37t-34 -90z" />
<glyph unicode="&#xc6;" d="M-63 0l450 1452h846v-166h-473v-446h321v-166h-321v-508h473v-166h-653v387h-344l-117 -387h-182zM287 557h293v735h-70z" />
<glyph unicode="&#xc7;" d="M109 725q0 96 5 164.5t22 152t54.5 154t96.5 127.5q159 156 375 156q213 0 362 -135.5t158 -346.5h-191q-3 59 -26 114t-58 91q-94 105 -245 105q-138 0 -246 -111q-34 -35 -58 -82.5t-35.5 -88.5t-17.5 -102.5t-7 -97t-1 -100.5t1 -100.5t7 -97t17.5 -102.5t35.5 -88.5 t58 -82.5q108 -111 246 -111q139 0 234.5 90.5t98.5 229.5h189q-9 -211 -159 -351.5t-363 -140.5q-216 0 -375 156q-59 57 -96.5 127.5t-54.5 154t-22 152t-5 164.5zM451 -412l167 289h168l-147 -375z" />
<glyph unicode="&#xc8;" d="M205 0v1452h960v-168h-778v-442h588v-172h-588v-502h778v-168h-960zM444 1790l107 149l360 -288l-73 -99z" />
<glyph unicode="&#xc9;" d="M205 0v1452h960v-168h-778v-442h588v-172h-588v-502h778v-168h-960zM459 1638l360 291l107 -149l-394 -240z" />
<glyph unicode="&#xca;" d="M205 0v1452h960v-168h-778v-442h588v-172h-588v-502h778v-168h-960zM362 1645l273 288h119l272 -288l-100 -91l-232 246l-231 -246z" />
<glyph unicode="&#xcb;" d="M205 0v1452h960v-168h-778v-442h588v-172h-588v-502h778v-168h-960zM399 1599v209h209v-209h-209zM780 1599v209h209v-209h-209z" />
<glyph unicode="&#xcc;" d="M221 0v152h322v1151h-322v149h828v-149h-322v-1151h322v-152h-828zM377 1780l106 149l361 -289l-74 -98z" />
<glyph unicode="&#xcd;" d="M221 0v152h322v1151h-322v149h828v-149h-322v-1151h322v-152h-828zM383 1638l360 291l107 -149l-393 -240z" />
<glyph unicode="&#xce;" d="M221 0v152h322v1151h-322v149h828v-149h-322v-1151h322v-152h-828zM303 1634l272 289h119l273 -289l-101 -90l-231 246l-232 -246z" />
<glyph unicode="&#xcf;" d="M221 0v152h322v1151h-322v149h828v-149h-322v-1151h322v-152h-828zM340 1597v209h209v-209h-209zM721 1597v209h209v-209h-209z" />
<glyph unicode="&#xd0;" d="M55 686v135h135v631h433q164 0 282 -60.5t182 -164.5q57 -91 78 -211.5t21 -286.5q0 -349 -101 -510q-64 -103 -180.5 -161t-281.5 -58h-433v686h-135zM373 168h250q179 0 274 102q34 37 56 87.5t31.5 116t12 119.5t2.5 136q0 83 -3 138.5t-13 120t-33 114t-59 86.5 q-93 96 -268 96h-250v-463h313v-135h-313v-518z" />
<glyph unicode="&#xd1;" d="M143 0v1452h228l579 -1173v1173h176v-1452h-223l-581 1167v-1167h-179zM279 1700q72 72 120.5 93.5t100.5 21.5q70 0 147 -43q4 -2 17 -9.5t18 -10.5t16.5 -8.5t18.5 -8t17 -6t20 -4.5t20 -1q18 0 30.5 2.5t39 19t59.5 48.5l88 -100q-72 -72 -122 -94.5t-99 -22.5 q-73 0 -156 47q-79 43 -118 43q-32 0 -50 -8q-28 -11 -79 -62z" />
<glyph unicode="&#xd2;" d="M80 725q0 99 5.5 171t22.5 153t54 148.5t94 123.5q161 158 379 158t379 -158q57 -56 94 -123.5t54 -148.5t22.5 -153t5.5 -171t-5.5 -171t-22.5 -153t-54 -148.5t-94 -123.5q-161 -158 -379 -158t-379 158q-57 56 -94 123.5t-54 148.5t-22.5 153t-5.5 171zM268 725 q0 -60 0.5 -81.5t3 -78t9.5 -88t19 -76.5t33 -80t50 -65q108 -111 252 -111t252 111q33 34 56 80t34 85t17 98.5t6.5 93t0.5 94.5v18q0 176 -14 254q-24 137 -100 215q-108 111 -252 111t-252 -111q-29 -30 -50 -65t-33 -80t-19 -76.5t-9.5 -88t-3 -78t-0.5 -81.5zM383 1790 l109 149l358 -288l-72 -99z" />
<glyph unicode="&#xd3;" d="M80 725q0 99 5.5 171t22.5 153t54 148.5t94 123.5q161 158 379 158t379 -158q57 -56 94 -123.5t54 -148.5t22.5 -153t5.5 -171t-5.5 -171t-22.5 -153t-54 -148.5t-94 -123.5q-161 -158 -379 -158t-379 158q-57 56 -94 123.5t-54 148.5t-22.5 153t-5.5 171zM268 725 q0 -60 0.5 -81.5t3 -78t9.5 -88t19 -76.5t33 -80t50 -65q108 -111 252 -111t252 111q33 34 56 80t34 85t17 98.5t6.5 93t0.5 94.5v18q0 176 -14 254q-24 137 -100 215q-108 111 -252 111t-252 -111q-29 -30 -50 -65t-33 -80t-19 -76.5t-9.5 -88t-3 -78t-0.5 -81.5zM408 1649 l358 290l108 -149l-395 -240z" />
<glyph unicode="&#xd4;" d="M80 725q0 99 5.5 171t22.5 153t54 148.5t94 123.5q161 158 379 158t379 -158q57 -56 94 -123.5t54 -148.5t22.5 -153t5.5 -171t-5.5 -171t-22.5 -153t-54 -148.5t-94 -123.5q-161 -158 -379 -158t-379 158q-57 56 -94 123.5t-54 148.5t-22.5 153t-5.5 171zM268 725 q0 -60 0.5 -81.5t3 -78t9.5 -88t19 -76.5t33 -80t50 -65q108 -111 252 -111t252 111q33 34 56 80t34 85t17 98.5t6.5 93t0.5 94.5v18q0 176 -14 254q-24 137 -100 215q-108 111 -252 111t-252 -111q-29 -30 -50 -65t-33 -80t-19 -76.5t-9.5 -88t-3 -78t-0.5 -81.5zM303 1632 l272 291h119l273 -291l-101 -90l-231 248l-232 -248z" />
<glyph unicode="&#xd5;" d="M80 725q0 99 5.5 171t22.5 153t54 148.5t94 123.5q161 158 379 158t379 -158q57 -56 94 -123.5t54 -148.5t22.5 -153t5.5 -171t-5.5 -171t-22.5 -153t-54 -148.5t-94 -123.5q-161 -158 -379 -158t-379 158q-57 56 -94 123.5t-54 148.5t-22.5 153t-5.5 171zM268 725 q0 -60 0.5 -81.5t3 -78t9.5 -88t19 -76.5t33 -80t50 -65q108 -111 252 -111t252 111q33 34 56 80t34 85t17 98.5t6.5 93t0.5 94.5v18q0 176 -14 254q-24 137 -100 215q-108 111 -252 111t-252 -111q-29 -30 -50 -65t-33 -80t-19 -76.5t-9.5 -88t-3 -78t-0.5 -81.5zM279 1698 q72 72 121 94.5t100 22.5q65 0 147 -46q3 -2 15 -8.5t15.5 -8.5t14.5 -7.5t16 -7.5l15 -6t17 -5t16 -2.5t18 -1.5q17 0 30.5 3.5t39.5 20t59 48.5l88 -102q-71 -71 -121 -93t-100 -22q-77 0 -156 45q-79 43 -118 43q-32 0 -50 -8q-32 -13 -79 -60z" />
<glyph unicode="&#xd6;" d="M80 725q0 99 5.5 171t22.5 153t54 148.5t94 123.5q161 158 379 158t379 -158q57 -56 94 -123.5t54 -148.5t22.5 -153t5.5 -171t-5.5 -171t-22.5 -153t-54 -148.5t-94 -123.5q-161 -158 -379 -158t-379 158q-57 56 -94 123.5t-54 148.5t-22.5 153t-5.5 171zM268 725 q0 -60 0.5 -81.5t3 -78t9.5 -88t19 -76.5t33 -80t50 -65q108 -111 252 -111t252 111q33 34 56 80t34 85t17 98.5t6.5 93t0.5 94.5v18q0 176 -14 254q-24 137 -100 215q-108 111 -252 111t-252 -111q-29 -30 -50 -65t-33 -80t-19 -76.5t-9.5 -88t-3 -78t-0.5 -81.5zM340 1599 v209h209v-209h-209zM721 1599v209h209v-209h-209z" />
<glyph unicode="&#xd7;" d="M70 156l454 454l-454 455l110 111l453 -455l457 455l110 -111l-457 -455l457 -454l-110 -111l-455 455l-455 -455z" />
<glyph unicode="&#xd8;" d="M80 725q0 99 5.5 171t22.5 153t54 148.5t94 123.5q161 158 379 158q151 0 276 -78l78 172l113 -51q-7 -18 -90 -199l2 -2q57 -56 94 -123.5t54 -148.5t22.5 -153t5.5 -171t-5.5 -171t-22.5 -153t-54 -148.5t-94 -123.5q-161 -158 -379 -158q-111 0 -217 45l-72 -157 l-115 53l78 170q-27 21 -53 47q-57 56 -94 123.5t-54 148.5t-22.5 153t-5.5 171zM268 725q0 -60 0.5 -81.5t3 -78t9.5 -88t19 -76.5t33 -80t50 -65l4 -4l451 985q-89 68 -203 68q-144 0 -252 -111q-29 -30 -50 -65t-33 -80t-19 -76.5t-9.5 -88t-3 -78t-0.5 -81.5zM492 176 q67 -31 143 -31q144 0 252 111q33 34 56 80t34 85t17 98.5t6.5 93t0.5 94.5v18q0 172 -12 244q-16 101 -59 170q-236 -523 -438 -963z" />
<glyph unicode="&#xd9;" d="M125 553v899h182v-901q0 -91 16.5 -161.5t53 -127.5t101.5 -87t157 -30t157 30t101.5 87t53 127.5t16.5 161.5v901h182v-899q0 -273 -133.5 -426.5t-376.5 -153.5t-376.5 153.5t-133.5 426.5zM383 1780l106 149l361 -289l-74 -98z" />
<glyph unicode="&#xda;" d="M125 553v899h182v-901q0 -91 16.5 -161.5t53 -127.5t101.5 -87t157 -30t157 30t101.5 87t53 127.5t16.5 161.5v901h182v-899q0 -273 -133.5 -426.5t-376.5 -153.5t-376.5 153.5t-133.5 426.5zM416 1638l360 291l107 -149l-394 -240z" />
<glyph unicode="&#xdb;" d="M125 553v899h182v-901q0 -91 16.5 -161.5t53 -127.5t101.5 -87t157 -30t157 30t101.5 87t53 127.5t16.5 161.5v901h182v-899q0 -273 -133.5 -426.5t-376.5 -153.5t-376.5 153.5t-133.5 426.5zM303 1632l272 291h119l273 -291l-101 -90l-231 248l-232 -248z" />
<glyph unicode="&#xdc;" d="M125 528v924h182v-926q0 -177 78.5 -279t249.5 -102q87 0 151 28.5t101.5 80.5t55.5 119.5t18 152.5v926h182v-924q0 -254 -130.5 -404.5t-379.5 -150.5q-166 0 -282 71.5t-171 194.5t-55 289zM340 1597v209h209v-209h-209zM721 1597v209h209v-209h-209z" />
<glyph unicode="&#xdd;" d="M45 1452h205l391 -694l389 694h195l-498 -862v-590h-184v590zM446 1632l349 252l92 -149l-381 -201z" />
<glyph unicode="&#xde;" d="M231 0v1454h185v-272h315q245 0 367 -131q110 -119 110 -308q0 -208 -121 -329t-354 -121h-317v-293h-185zM416 459h313q155 0 223 69.5t68 214.5q0 273 -293 273h-311v-557z" />
<glyph unicode="&#xdf;" d="M78 881v155h176q0 218 110.5 340.5t307.5 122.5q186 0 297.5 -104t111.5 -273q0 -113 -62 -200t-161 -113q145 -18 233.5 -127.5t88.5 -255.5q0 -203 -127 -320.5t-328 -117.5q-99 0 -172 16v146q62 -11 137 -11q138 0 223.5 72t85.5 215q0 156 -89.5 227.5t-237.5 71.5 h-58v152h58q96 0 163.5 70.5t67.5 174.5t-60 167t-171 63q-86 0 -142 -43.5t-79 -113.5t-23 -165v-1030h-176v881h-174z" />
<glyph unicode="&#xe0;" d="M170 293q0 42 10.5 82.5t37 83t67 75t106.5 55t150 27.5l323 19v76q0 107 -53 155q-57 54 -174 54q-133 0 -195 -62q-51 -51 -51 -123h-170q3 126 90 217q51 54 139 82.5t187 28.5q144 0 237 -54.5t132 -144.5q30 -70 30 -159v-502q0 -70 62 -70l45 6v-129 q-49 -24 -115 -24q-68 0 -111 45t-43 112h-4q-44 -77 -138 -123.5t-204 -46.5q-91 0 -162.5 28t-112.5 74.5t-62 102t-21 115.5zM348 297q0 -75 51.5 -125.5t155.5 -50.5q136 0 217 84q92 95 92 233v62l-286 -17q-57 -3 -106.5 -21t-86.5 -60.5t-37 -104.5zM403 1370 l107 150l360 -291l-73 -99z" />
<glyph unicode="&#xe1;" d="M170 293q0 42 10.5 82.5t37 83t67 75t106.5 55t150 27.5l323 19v76q0 107 -53 155q-57 54 -174 54q-133 0 -195 -62q-51 -51 -51 -123h-170q3 126 90 217q51 54 139 82.5t187 28.5q144 0 237 -54.5t132 -144.5q30 -70 30 -159v-502q0 -70 62 -70l45 6v-129 q-49 -24 -115 -24q-68 0 -111 45t-43 112h-4q-44 -77 -138 -123.5t-204 -46.5q-91 0 -162.5 28t-112.5 74.5t-62 102t-21 115.5zM348 297q0 -75 51.5 -125.5t155.5 -50.5q136 0 217 84q92 95 92 233v62l-286 -17q-57 -3 -106.5 -21t-86.5 -60.5t-37 -104.5zM401 1229 l361 291l106 -150l-393 -240z" />
<glyph unicode="&#xe2;" d="M170 293q0 42 10.5 82.5t37 83t67 75t106.5 55t150 27.5l323 19v76q0 107 -53 155q-57 54 -174 54q-133 0 -195 -62q-51 -51 -51 -123h-170q3 126 90 217q51 54 139 82.5t187 28.5q144 0 237 -54.5t132 -144.5q30 -70 30 -159v-502q0 -70 62 -70l45 6v-129 q-49 -24 -115 -24q-68 0 -111 45t-43 112h-4q-44 -77 -138 -123.5t-204 -46.5q-91 0 -162.5 28t-112.5 74.5t-62 102t-21 115.5zM299 1221l274 290h117l275 -290l-101 -88l-231 245l-232 -245zM348 297q0 -75 51.5 -125.5t155.5 -50.5q136 0 217 84q92 95 92 233v62 l-286 -17q-57 -3 -106.5 -21t-86.5 -60.5t-37 -104.5z" />
<glyph unicode="&#xe3;" d="M170 293q0 42 10.5 82.5t37 83t67 75t106.5 55t150 27.5l323 19v76q0 107 -53 155q-57 54 -174 54q-133 0 -195 -62q-51 -51 -51 -123h-170q3 126 90 217q51 54 139 82.5t187 28.5q144 0 237 -54.5t132 -144.5q30 -70 30 -159v-502q0 -70 62 -70l45 6v-129 q-49 -24 -115 -24q-68 0 -111 45t-43 112h-4q-44 -77 -138 -123.5t-204 -46.5q-91 0 -162.5 28t-112.5 74.5t-62 102t-21 115.5zM283 1329q72 72 120 94.5t99 22.5q67 0 147 -45q29 -16 42 -23t37.5 -14.5t47.5 -7.5q18 0 30.5 2.5t39 18.5t59.5 48l88 -100 q-72 -72 -121 -94.5t-98 -22.5q-79 0 -158 45q-79 43 -116 43q-31 0 -49 -8q-35 -14 -80 -59zM348 297q0 -75 51.5 -125.5t155.5 -50.5q136 0 217 84q92 95 92 233v62l-286 -17q-57 -3 -106.5 -21t-86.5 -60.5t-37 -104.5z" />
<glyph unicode="&#xe4;" d="M170 293q0 42 10.5 82.5t37 83t67 75t106.5 55t150 27.5l323 19v76q0 107 -53 155q-57 54 -174 54q-133 0 -195 -62q-51 -51 -51 -123h-170q3 126 90 217q51 54 139 82.5t187 28.5q144 0 237 -54.5t132 -144.5q30 -70 30 -159v-502q0 -70 62 -70l45 6v-129 q-49 -24 -115 -24q-68 0 -111 45t-43 112h-4q-44 -77 -138 -123.5t-204 -46.5q-91 0 -162.5 28t-112.5 74.5t-62 102t-21 115.5zM344 1206v209h209v-209h-209zM348 297q0 -75 51.5 -125.5t155.5 -50.5q136 0 217 84q92 95 92 233v62l-286 -17q-57 -3 -106.5 -21t-86.5 -60.5 t-37 -104.5zM725 1206v209h209v-209h-209z" />
<glyph unicode="&#xe5;" d="M170 293q0 42 10.5 82.5t37 83t67 75t106.5 55t150 27.5l323 19v76q0 107 -53 155q-57 54 -174 54q-133 0 -195 -62q-51 -51 -51 -123h-170q3 126 90 217q51 54 139 82.5t187 28.5q144 0 237 -54.5t132 -144.5q30 -70 30 -159v-502q0 -70 62 -70l45 6v-129 q-49 -24 -115 -24q-68 0 -111 45t-43 112h-4q-44 -77 -138 -123.5t-204 -46.5q-91 0 -162.5 28t-112.5 74.5t-62 102t-21 115.5zM348 297q0 -75 51.5 -125.5t155.5 -50.5q136 0 217 84q92 95 92 233v62l-286 -17q-57 -3 -106.5 -21t-86.5 -60.5t-37 -104.5zM414 1374 q0 89 61.5 154t163.5 65t163.5 -65t61.5 -154t-61.5 -154t-163.5 -65t-163.5 65t-61.5 154zM526 1374q0 -47 31.5 -79.5t81.5 -32.5t80.5 32.5t30.5 79.5t-31 81t-80 34q-50 0 -81.5 -34t-31.5 -81z" />
<glyph unicode="&#xe6;" d="M94 293q0 119 78 203q49 50 125.5 80t151.5 30h110v318q-105 0 -172 -58q-63 -56 -68 -129h-165q6 116 100 207q124 119 381 119q136 0 238.5 -33.5t179.5 -109.5q145 -142 145 -402v-55h-471v-332q60 1 113 18t97.5 58.5t61.5 101.5h166q-19 -103 -87 -177t-167 -114 q-96 -41 -276 -41h-174q-87 0 -166 30t-125 81q-76 82 -76 205zM262 295q0 -84 55.5 -128t143.5 -44h98v344h-98q-90 0 -144.5 -48t-54.5 -124zM727 606h295q-3 127 -80 207q-91 94 -215 100v-307z" />
<glyph unicode="&#xe7;" d="M170 518q0 261 160 418q59 58 143.5 92.5t179.5 34.5q91 0 170.5 -30t134.5 -83q118 -115 129 -264h-176q-10 88 -82 160q-31 30 -78.5 47.5t-97.5 17.5q-112 0 -192 -73q-113 -103 -113 -320q0 -214 113 -317q83 -76 192 -76q50 0 97.5 17.5t78.5 47.5q75 74 84 160h174 q-11 -149 -131 -266q-114 -111 -303 -111q-95 0 -179.5 34.5t-143.5 92.5q-160 157 -160 418zM424 -414l168 291h168l-148 -375z" />
<glyph unicode="&#xe8;" d="M160 514q0 123 39.5 231.5t113.5 184.5q133 133 330 133q95 0 179 -34t141 -91q72 -74 110.5 -182.5t38.5 -231.5v-61h-774q0 -72 25.5 -141t78.5 -119q81 -78 199 -78q66 0 108 14.5t82 46.5q66 52 87 125h167q-36 -159 -157 -248.5t-287 -89.5q-189 0 -328 136 q-153 150 -153 405zM344 606h584q-3 135 -88 223q-81 84 -199 84q-71 0 -129 -30.5t-93 -77.5t-54 -98.5t-21 -100.5zM422 1372l106 150l361 -289l-74 -100z" />
<glyph unicode="&#xe9;" d="M160 514q0 123 39.5 231.5t113.5 184.5q133 133 330 133q95 0 179 -34t141 -91q72 -74 110.5 -182.5t38.5 -231.5v-61h-774q0 -72 25.5 -141t78.5 -119q81 -78 199 -78q66 0 108 14.5t82 46.5q66 52 87 125h167q-36 -159 -157 -248.5t-287 -89.5q-189 0 -328 136 q-153 150 -153 405zM344 606h584q-3 135 -88 223q-81 84 -199 84q-71 0 -129 -30.5t-93 -77.5t-54 -98.5t-21 -100.5zM426 1227l358 289l107 -150l-393 -240z" />
<glyph unicode="&#xea;" d="M160 514q0 123 39.5 231.5t113.5 184.5q133 133 330 133q95 0 179 -34t141 -91q72 -74 110.5 -182.5t38.5 -231.5v-61h-774q0 -72 25.5 -141t78.5 -119q81 -78 199 -78q66 0 108 14.5t82 46.5q66 52 87 125h167q-36 -159 -157 -248.5t-287 -89.5q-189 0 -328 136 q-153 150 -153 405zM315 1221l275 290h117l274 -290l-102 -88l-232 245l-231 -245zM344 606h584q-3 135 -88 223q-81 84 -199 84q-71 0 -129 -30.5t-93 -77.5t-54 -98.5t-21 -100.5z" />
<glyph unicode="&#xeb;" d="M160 514q0 123 39.5 231.5t113.5 184.5q133 133 330 133q95 0 179 -34t141 -91q72 -74 110.5 -182.5t38.5 -231.5v-61h-774q0 -72 25.5 -141t78.5 -119q81 -78 199 -78q66 0 108 14.5t82 46.5q66 52 87 125h167q-36 -159 -157 -248.5t-287 -89.5q-189 0 -328 136 q-153 150 -153 405zM338 1206v209h209v-209h-209zM344 606h584q-3 135 -88 223q-81 84 -199 84q-71 0 -129 -30.5t-93 -77.5t-54 -98.5t-21 -100.5zM719 1206v209h209v-209h-209z" />
<glyph unicode="&#xec;" d="M229 0v150h373v739h-332v147h508v-886h375v-150h-924zM354 1360l107 149l358 -288l-71 -101z" />
<glyph unicode="&#xed;" d="M229 0v150h373v739h-332v147h508v-886h375v-150h-924zM416 1223l358 288l107 -149l-394 -240z" />
<glyph unicode="&#xee;" d="M229 0v150h373v739h-332v147h508v-886h375v-150h-924zM342 1221l274 290h117l275 -290l-101 -88l-231 245l-232 -245z" />
<glyph unicode="&#xef;" d="M229 0v150h373v739h-332v147h508v-886h375v-150h-924zM379 1227v209h209v-209h-209zM760 1227v209h209v-209h-209z" />
<glyph unicode="&#xf0;" d="M190 518q0 137 30.5 241.5t109.5 182.5q124 121 313 121l88 -8l-88 149h-246v121h174l-92 154h183l90 -154h200v-121h-129l170 -291q105 -177 105 -395q0 -137 -30.5 -241.5t-109.5 -182.5q-124 -121 -315 -121q-189 0 -313 121q-79 78 -109.5 182.5t-30.5 241.5z M365 518q0 -224 94 -321q74 -74 184 -74q112 0 186 74q95 98 95 321q0 224 -95 322q-73 73 -186 73q-111 0 -184 -73q-94 -97 -94 -322z" />
<glyph unicode="&#xf1;" d="M219 0v1036h154l14 -155q37 84 132.5 133t191.5 49q176 0 272 -100t96 -281v-682h-178v657q0 248 -233 248q-72 0 -132.5 -45.5t-95.5 -118.5q-45 -98 -45 -268v-473h-176zM301 1329q72 72 120 94.5t99 22.5q70 0 150 -45q3 -2 9 -5q64 -36 102 -39l14 -1q18 0 31 2.5 t40.5 18.5t59.5 48l88 -100q-72 -72 -122 -94.5t-99 -22.5q-77 0 -156 45q-79 43 -119 43q-31 0 -49 -8q-35 -14 -80 -59z" />
<glyph unicode="&#xf2;" d="M147 518q0 261 162 420q59 57 145.5 91t182.5 34t180.5 -34t143.5 -91q161 -158 161 -418q0 -264 -161 -422q-59 -57 -143.5 -91t-180.5 -34t-182.5 34t-145.5 91q-162 159 -162 420zM326 520q0 -216 116 -321q81 -74 193 -74q111 0 192 74q117 106 117 319 q0 214 -117 320q-80 73 -192 73q-113 0 -193 -73q-116 -105 -116 -318zM395 1370l107 150l360 -291l-74 -99z" />
<glyph unicode="&#xf3;" d="M147 518q0 261 162 420q59 57 145.5 91t182.5 34t180.5 -34t143.5 -91q161 -158 161 -418q0 -264 -161 -422q-59 -57 -143.5 -91t-180.5 -34t-182.5 34t-145.5 91q-162 159 -162 420zM326 520q0 -216 116 -321q81 -74 193 -74q111 0 192 74q117 106 117 319 q0 214 -117 320q-80 73 -192 73q-113 0 -193 -73q-116 -105 -116 -318zM401 1229l361 289l106 -150l-393 -240z" />
<glyph unicode="&#xf4;" d="M147 518q0 261 162 420q59 57 145.5 91t182.5 34t180.5 -34t143.5 -91q161 -158 161 -418q0 -264 -161 -422q-59 -57 -143.5 -91t-180.5 -34t-182.5 34t-145.5 91q-162 159 -162 420zM303 1221l272 290h119l273 -290l-101 -88l-231 245l-232 -245zM326 520 q0 -216 116 -321q81 -74 193 -74q111 0 192 74q117 106 117 319q0 214 -117 320q-80 73 -192 73q-113 0 -193 -73q-116 -105 -116 -318z" />
<glyph unicode="&#xf5;" d="M147 518q0 261 162 420q59 57 145.5 91t182.5 34t180.5 -34t143.5 -91q161 -158 161 -418q0 -264 -161 -422q-59 -57 -143.5 -91t-180.5 -34t-182.5 34t-145.5 91q-162 159 -162 420zM279 1343q72 72 120.5 93.5t100.5 21.5q67 0 147 -45q29 -16 42 -23t37.5 -14.5 t47.5 -7.5q18 0 30.5 2.5t39 19t59.5 48.5l88 -101q-72 -72 -121.5 -94t-99.5 -22q-73 0 -156 47q-75 41 -118 41q-30 0 -50 -9q-33 -13 -79 -59zM326 520q0 -216 116 -321q81 -74 193 -74q111 0 192 74q117 106 117 319q0 214 -117 320q-80 73 -192 73q-113 0 -193 -73 q-116 -105 -116 -318z" />
<glyph unicode="&#xf6;" d="M147 518q0 261 162 420q59 57 145.5 91t182.5 34t180.5 -34t143.5 -91q161 -158 161 -418q0 -264 -161 -422q-59 -57 -143.5 -91t-180.5 -34t-182.5 34t-145.5 91q-162 159 -162 420zM326 520q0 -216 116 -321q81 -74 193 -74q111 0 192 74q117 106 117 319 q0 214 -117 320q-80 73 -192 73q-113 0 -193 -73q-116 -105 -116 -318zM338 1206v209h209v-209h-209zM719 1206v209h209v-209h-209z" />
<glyph unicode="&#xf7;" d="M121 535v159h1028v-159h-1028zM510 98v250h242v-250h-242zM510 897v250h242v-250h-242z" />
<glyph unicode="&#xf8;" d="M147 518q0 261 162 420q59 57 145.5 91t182.5 34q134 0 250 -68l100 154l109 -74l-109 -166q135 -152 135 -389q0 -264 -161 -422q-59 -57 -143.5 -91t-180.5 -34q-123 0 -229 56l-99 -150l-110 74l102 153q-154 161 -154 412zM326 520q0 -162 69 -268l402 610 q-69 49 -162 49q-113 0 -193 -73q-116 -105 -116 -318zM496 162q60 -37 139 -37q111 0 192 74q117 106 117 319q0 145 -55 242z" />
<glyph unicode="&#xf9;" d="M205 354v682h176v-657q0 -248 229 -248q111 0 190 87.5t79 215.5v602h176v-1036h-154l-14 156q-38 -85 -130.5 -134t-187.5 -49q-163 0 -263.5 104t-100.5 277zM385 1366l109 150l358 -289l-72 -101z" />
<glyph unicode="&#xfa;" d="M205 354v682h176v-657q0 -248 229 -248q111 0 190 87.5t79 215.5v602h176v-1036h-154l-14 156q-38 -85 -130.5 -134t-187.5 -49q-163 0 -263.5 104t-100.5 277zM387 1227l361 289l106 -150l-393 -240z" />
<glyph unicode="&#xfb;" d="M205 354v682h176v-657q0 -248 229 -248q111 0 190 87.5t79 215.5v602h176v-1036h-154l-14 156q-38 -85 -130.5 -134t-187.5 -49q-163 0 -263.5 104t-100.5 277zM295 1221l274 290h117l275 -290l-103 -88l-231 245l-232 -245z" />
<glyph unicode="&#xfc;" d="M205 354v682h176v-657q0 -248 229 -248q111 0 190 87.5t79 215.5v602h176v-1036h-154l-14 156q-38 -85 -130.5 -134t-187.5 -49q-163 0 -263.5 104t-100.5 277zM338 1206v209h209v-209h-209zM719 1206v209h209v-209h-209z" />
<glyph unicode="&#xfd;" d="M115 1034h215l334 -821l309 821h198l-507 -1247q-44 -110 -107 -166.5t-172 -56.5q-115 0 -182 37v149q77 -29 145 -29q57 0 92 24t58 81l69 174zM414 1223l352 264l96 -148l-383 -213z" />
<glyph unicode="&#xfe;" d="M209 -444v1923h174v-564q39 67 129 107.5t180 40.5q178 0 291 -105q77 -74 118.5 -190.5t41.5 -251.5q0 -130 -39.5 -243t-112.5 -187q-110 -113 -299 -113q-89 0 -176.5 39.5t-132.5 108.5v-565h-174zM373 518q0 -227 116 -330q74 -67 175 -67q67 0 120 23.5t86 61.5 t55 90.5t31 107t9 114.5t-9 114.5t-31 107t-55 90.5t-86 61.5t-120 23.5q-101 0 -175 -67q-116 -103 -116 -330z" />
<glyph unicode="&#xff;" d="M106 1034h216l333 -821l310 821h198l-508 -1247q-44 -110 -106.5 -166.5t-171.5 -56.5q-112 0 -182 20v150q77 -13 145 -13q57 0 91.5 24t57.5 81l70 174zM342 1206v209h209v-209h-209zM723 1206v209h209v-209h-209z" />
<glyph unicode="&#x131;" d="M229 0v150h373v739h-332v147h508v-886h375v-150h-924z" />
<glyph unicode="&#x141;" d="M121 631l201 125v696h182v-584l260 162l67 -108l-327 -203v-549h698v-170h-880v606l-134 -82z" />
<glyph unicode="&#x142;" d="M213 0v150h365v571l-146 -90l-67 106l213 133v461h-324v148h500v-500l133 84l67 -109l-200 -125v-679h368v-150h-909z" />
<glyph unicode="&#x152;" d="M47 725q0 94 5.5 160.5t22.5 144.5t54.5 144.5t95.5 123.5q157 154 375 154h655v-168h-473v-444h320v-168h-320v-506h473v-166h-655q-221 0 -377 150q-47 46 -80.5 101t-51.5 106.5t-28.5 118.5t-13 120.5t-2.5 128.5zM233 725q0 -64 1 -98t7 -92.5t17.5 -97t34.5 -83.5 t57 -80q99 -102 252 -102v1108q-149 0 -252 -106q-34 -35 -57 -80.5t-34.5 -83.5t-17.5 -96t-7 -91.5t-1 -97.5z" />
<glyph unicode="&#x153;" d="M86 518q0 152 71 277t195.5 196.5t276.5 71.5q265 0 418 -150q147 -144 147 -389v-61h-473v-336q95 2 171 47.5t101 134.5h164q-19 -103 -86 -177t-166 -114q-70 -29 -125 -37t-143 -8q-242 0 -396.5 151.5t-154.5 393.5zM260 518q0 -144 76 -255t217 -132v782 q-96 -14 -163.5 -74t-98.5 -142.5t-31 -178.5zM721 606h299q-3 126 -84 213.5t-215 93.5v-307z" />
<glyph unicode="&#x160;" d="M76 459h190q0 -63 28 -124.5t73 -105.5q92 -88 272 -88q175 0 266 84q74 67 74 170q0 90 -58.5 152.5t-181.5 81.5l-223 35q-173 26 -278 123t-105 262q0 169 123 286q153 144 375 144q231 0 373 -136q131 -125 137 -313h-191q-6 106 -69 178q-90 103 -252 103t-252 -103 q-55 -64 -55 -155q0 -92 61 -142.5t152 -62.5q47 -6 129 -19.5t106 -17.5q184 -27 291.5 -135t107.5 -277q0 -165 -120 -282q-73 -71 -181 -107.5t-229 -36.5q-262 0 -412 138q-70 66 -110.5 156.5t-40.5 191.5zM324 1823l92 92l221 -236l219 236l92 -92l-256 -269h-112z " />
<glyph unicode="&#x161;" d="M188 334h174q3 -93 91 -160q68 -51 200 -51q134 0 203 59q51 40 51 107q0 55 -37 93.5t-116 49.5l-265 39q-118 18 -190 96q-61 70 -61 178q0 115 84 199q52 54 136 86.5t179 32.5q108 0 198.5 -35.5t143.5 -103.5q67 -85 72 -197h-174q-3 75 -62 127q-67 61 -178 61 t-176 -51q-58 -49 -58 -108q0 -107 138 -129l280 -43q105 -15 182.5 -88.5t77.5 -194.5q0 -122 -82 -207q-58 -60 -151.5 -90.5t-202.5 -30.5q-230 0 -354 121q-48 46 -75.5 110t-27.5 130zM362 1374l82 82l201 -211l197 211l82 -82l-230 -241h-102z" />
<glyph unicode="&#x178;" d="M55 1452h205l381 -694l379 694h194l-487 -862v-590h-184v590zM340 1597v209h209v-209h-209zM721 1597v209h209v-209h-209z" />
<glyph unicode="&#x17d;" d="M143 0v182l799 1100h-786v170h993v-184l-801 -1098h807v-170h-1012zM324 1812l92 93l221 -236l219 236l92 -93l-256 -268h-112z" />
<glyph unicode="&#x17e;" d="M217 0v154l633 729h-633v151h846v-153l-631 -729h637v-152h-852zM346 1372l82 82l201 -211l196 211l82 -82l-229 -242h-103z" />
<glyph unicode="&#x192;" d="M125 -66q2 0 15 -2.5t24.5 -4.5t33.5 -3.5t46 -1.5q60 0 107 41t67 141l127 637h-209v154h239l58 293q26 129 110.5 205.5t192.5 76.5q80 0 154 -16v-154q-2 0 -14.5 2.5t-25 4.5t-34.5 4t-45 2q-59 0 -106.5 -41.5t-67.5 -141.5l-47 -235h288v-154h-319l-137 -694 q-26 -130 -110.5 -206.5t-192.5 -76.5q-75 0 -154 17v153z" />
<glyph unicode="&#x2c6;" d="M303 1221l272 290h119l273 -290l-101 -88l-231 245l-232 -245z" />
<glyph unicode="&#x2c7;" d="M293 1835l104 92l238 -254l237 254l105 -92l-283 -299h-119z" />
<glyph unicode="&#x2d8;" d="M291 1470h143q23 -190 201 -190t201 190h143q-11 -143 -99 -234t-245 -91t-245 91t-99 234z" />
<glyph unicode="&#x2d9;" d="M512 1233v246h246v-246h-246z" />
<glyph unicode="&#x2da;" d="M420 1372q0 91 59 150t156 59t156 -59t59 -150q0 -92 -62.5 -150.5t-152.5 -58.5t-152.5 58.5t-62.5 150.5zM522 1372q0 -47 31.5 -79.5t81.5 -32.5t81.5 32.5t31.5 79.5t-31.5 81t-81.5 34t-81.5 -34t-31.5 -81z" />
<glyph unicode="&#x2db;" d="M467 -90h168l168 -289l-189 -86z" />
<glyph unicode="&#x2dc;" d="M279 1329q72 72 121 94.5t100 22.5q67 0 147 -45q29 -16 42 -23t37.5 -14.5t47.5 -7.5q18 0 30.5 2.5t39 18.5t59.5 48l88 -100q-72 -72 -122 -94.5t-99 -22.5q-77 0 -156 45q-79 43 -118 43q-32 0 -50 -8q-33 -13 -79 -59z" />
<glyph unicode="&#x2dd;" d="M182 1223l361 288l106 -149l-393 -240zM621 1223l358 288l108 -149l-395 -240z" />
<glyph unicode="&#x394;" d="M129 637l664 663h-506v152h766v-762l-154 2v502l-663 -664z" />
<glyph unicode="&#x3a9;" d="M86 723q0 113 43.5 216t117 178t175 119t213.5 44t213.5 -44t175 -119t117 -178t43.5 -216t-43.5 -216t-117 -178t-175 -119t-213.5 -44t-213.5 44t-175 119t-117 178t-43.5 216zM190 723q0 -186 130.5 -318.5t314.5 -132.5t314 132.5t130 318.5t-130 318.5t-314 132.5 t-314.5 -132.5t-130.5 -318.5zM459 426v584h211q95 0 152 -53t57 -134q0 -94 -58.5 -144t-150.5 -50h-107v-203h-104zM561 723h86q70 0 98.5 23.5t28.5 74.5q0 92 -127 92h-86v-190z" />
<glyph unicode="&#x3bc;" d="M221 -410v1446h174v-655q0 -123 51.5 -185.5t169.5 -62.5q97 0 172 78q86 89 86 287v538h175v-1036h-152l-14 158q-38 -86 -125 -134.5t-183 -48.5q-51 0 -101 15.5t-79 38.5v-439h-174z" />
<glyph unicode="&#x3c0;" d="M121 897v139h1005v-139h-157v-635q0 -62 20.5 -94.5t73.5 -32.5q67 0 92 10v-137q-55 -22 -137 -22q-60 0 -104.5 21.5t-69.5 58.5t-37 81t-12 95v655h-342v-899h-172v899h-160z" />
<glyph unicode="&#x2000;" horiz-adv-x="969" />
<glyph unicode="&#x2001;" horiz-adv-x="1939" />
<glyph unicode="&#x2002;" horiz-adv-x="969" />
<glyph unicode="&#x2003;" horiz-adv-x="1939" />
<glyph unicode="&#x2004;" horiz-adv-x="646" />
<glyph unicode="&#x2005;" horiz-adv-x="484" />
<glyph unicode="&#x2006;" horiz-adv-x="323" />
<glyph unicode="&#x2007;" horiz-adv-x="323" />
<glyph unicode="&#x2008;" horiz-adv-x="242" />
<glyph unicode="&#x2009;" horiz-adv-x="387" />
<glyph unicode="&#x200a;" horiz-adv-x="107" />
<glyph unicode="&#x2010;" d="M270 537v161h731v-161h-731z" />
<glyph unicode="&#x2011;" d="M270 537v161h731v-161h-731z" />
<glyph unicode="&#x2012;" d="M270 537v161h731v-161h-731z" />
<glyph unicode="&#x2013;" d="M127 537v161h1018v-161h-1018z" />
<glyph unicode="&#x2014;" d="M41 537v161h1188v-161h-1188z" />
<glyph unicode="&#x2018;" d="M481 786v297q0 148 56 245t190 153l64 -119q-96 -41 -129 -103t-33 -176h153v-297h-301z" />
<glyph unicode="&#x2019;" d="M481 874q96 41 129 103.5t33 177.5h-151v297h299v-297q0 -148 -56 -245.5t-190 -153.5z" />
<glyph unicode="&#x201a;" d="M479 -281q96 41 130 103t34 176h-154v297h302v-297q0 -148 -56 -244.5t-190 -152.5z" />
<glyph unicode="&#x201c;" d="M266 786v297q0 148 56 245t190 153l63 -119q-96 -41 -128.5 -102.5t-32.5 -176.5h153v-297h-301zM692 786v297q0 148 56 245t190 153l66 -119q-96 -41 -130 -103t-34 -176h153v-297h-301z" />
<glyph unicode="&#x201d;" d="M266 874q96 41 129 103t33 176h-152v299h299v-299q0 -148 -55.5 -244.5t-189.5 -152.5zM692 874q96 41 130 103t34 176h-154v299h302v-299q0 -148 -56 -244.5t-190 -152.5z" />
<glyph unicode="&#x201e;" d="M266 -281q96 41 130 103t34 176h-154v297h299v-297q0 -149 -54.5 -245t-188.5 -152zM694 -281q96 41 129 103t33 176h-154v297h302v-297q0 -148 -56 -244.5t-190 -152.5z" />
<glyph unicode="&#x2020;" d="M168 887v149h383v416h170v-416h381v-149h-381v-1143h-170v1143h-383z" />
<glyph unicode="&#x2021;" d="M168 160v149h383v578h-383v149h383v416h168v-416h383v-149h-383v-578h383v-149h-383v-416h-168v416h-383z" />
<glyph unicode="&#x2022;" d="M356 596q0 115 81.5 196.5t197.5 81.5q115 0 196.5 -81t81.5 -197t-81.5 -197.5t-196.5 -81.5t-197 81.5t-82 197.5z" />
<glyph unicode="&#x2026;" d="M94 0v244h242v-244h-242zM510 0v244h242v-244h-242zM932 0v244h244v-244h-244z" />
<glyph unicode="&#x202f;" horiz-adv-x="387" />
<glyph unicode="&#x2030;" d="M35 487l987 723l70 -100l-988 -723zM98 1194q0 111 69.5 185.5t186.5 74.5q115 0 189.5 -74.5t74.5 -185.5q0 -116 -77.5 -190t-186.5 -74q-106 0 -181 75.5t-75 188.5zM217 1194q0 -62 38.5 -106t98.5 -44t101 44t41 106q0 61 -41 103t-101 42t-98.5 -42t-38.5 -103z M287 244q0 111 70.5 185.5t187.5 74.5q125 0 203 -88q71 88 198 88q116 0 191 -74.5t75 -185.5q0 -116 -78 -190t-188 -74q-121 0 -196 94q-78 -94 -205 -94q-107 0 -182.5 75.5t-75.5 188.5zM408 244q0 -62 38.5 -106t98.5 -44q61 0 101 44t40 106t-40 103.5t-101 41.5 q-60 0 -98.5 -42t-38.5 -103zM809 244q0 -62 38.5 -106t98.5 -44q61 0 102.5 44t41.5 106t-41.5 103.5t-102.5 41.5q-60 0 -98.5 -42t-38.5 -103z" />
<glyph unicode="&#x2039;" d="M401 610l336 471l109 -77l-228 -392l230 -391l-111 -82z" />
<glyph unicode="&#x203a;" d="M401 221l230 391l-228 392l109 77l336 -471l-336 -471z" />
<glyph unicode="&#x2044;" d="M12 41l1061 1452l121 -90l-1063 -1454z" />
<glyph unicode="&#x205f;" horiz-adv-x="484" />
<glyph unicode="&#x20ac;" d="M98 506v125h152q-2 27 -2 82q0 53 2 80h-152v125h162q30 223 172 368q163 166 402 166q218 0 372 -119l-67 -147q-131 102 -305 102q-172 0 -285 -125q-83 -93 -107 -245h574l-55 -125h-529q-2 -27 -2 -82q0 -53 2 -80h471l-55 -125h-406q20 -147 107 -244 q113 -125 285 -125t305 103l67 -148q-154 -119 -372 -119q-239 0 -402 166q-142 145 -172 367h-162z" />
<glyph unicode="&#x2122;" d="M8 1335v113h518v-113h-196v-608h-125v608h-197zM608 727v721h168l121 -311l119 311h166v-721h-125v545l-115 -303h-92l-115 303v-545h-127z" />
<glyph unicode="&#x2202;" d="M213 625l676 391v-780z" />
<glyph unicode="&#x220f;" d="M104 483q0 17 13 29t30 12t30 -12t13 -29t-13 -30t-30 -13t-30 13t-13 30zM106 -33q0 17 13.5 30t30.5 13t30 -13t13 -30t-13 -30t-30 -13t-30.5 13t-13.5 30zM106 -549q0 17 13 29t31 12q17 0 30 -12t13 -29t-13 -30t-30 -13t-30.5 13t-13.5 30zM111 995q0 17 13 30 t30 13t30 -13t13 -30t-13 -30t-30 -13t-30 13t-13 30zM113 1509q0 17 13 30t30 13t30 -13t13 -30t-13 -29t-30 -12t-30 12t-13 29zM426 748q0 17 12.5 28.5t30.5 11.5t30.5 -11.5t12.5 -28.5t-13 -30t-30 -13t-30 13t-13 30zM428 -285q0 17 13 30t30 13t30 -13t13 -30 t-13 -30t-30 -13t-30 13t-13 30zM430 231q0 17 12 30t29 13t30 -13t13 -30t-13 -30t-30 -13t-29 13t-12 30zM432 1260q0 17 13 30t30 13t30 -13t13 -30t-13 -30t-30 -13t-30 13t-13 30zM434 1776q0 17 13 29t30 12t30 -12t13 -29t-13 -30t-30 -13t-30 13t-13 30zM750 483 q0 17 13 29t30 12t30 -12t13 -29t-13 -30t-30 -13t-30 13t-13 30zM752 -33q0 17 13 30t30 13t30 -13t13 -30t-13 -30t-30 -13t-30 13t-13 30zM752 -549q0 17 13 29t30 12t30 -12t13 -29t-13 -30t-30 -13t-30 13t-13 30zM756 995q0 17 13 30t30 13t29 -13t12 -30t-12 -30 t-29 -13t-30 13t-13 30zM758 1509q0 17 13 30t30 13t30 -13t13 -30t-13 -29t-30 -12t-30 12t-13 29zM1071 748q0 17 12.5 28.5t30.5 11.5t30.5 -11.5t12.5 -28.5t-13 -30t-30 -13t-30 13t-13 30zM1073 231q0 17 13 30t30 13t30 -13t13 -30t-13 -30t-30 -13t-30 13t-13 30z M1073 -285q0 17 13 30t30 13t30 -13t13 -30t-13 -30t-30 -13t-30 13t-13 30zM1077 1260q0 17 13 30t30 13t29 -13t12 -30t-12 -30t-29 -13t-30 13t-13 30zM1079 1776q0 17 13 29t30 12t30 -12t13 -29t-13 -30t-30 -13t-30 13t-13 30z" />
<glyph unicode="&#x2211;" d="M381 236v780l676 -391z" />
<glyph unicode="&#x2212;" d="M109 537v161h1054v-161h-1054z" />
<glyph unicode="&#x221a;" d="M119 1032h186l260 -788l471 1460h363v-135h-225l-531 -1585h-158z" />
<glyph unicode="&#x221e;" d="M80 410q0 108 67 199.5t172 135.5q-95 41 -155 126t-60 190q0 93 28.5 160t88.5 122q121 111 316 111q103 0 176 -18v-158q-66 14 -164 14q-118 0 -187 -63q-69 -66 -69 -164q0 -112 69 -176t189 -64h270v236h174v-236h228v-153h-228v-516h226v-156h-678q-222 0 -346 121 q-117 114 -117 289zM262 403q0 -95 57 -159q39 -43 99.5 -65.5t128.5 -22.5h274v516h-258q-129 0 -215 -76t-86 -193z" />
<glyph unicode="&#x222b;" d="M217 690v762h766v-152h-506l664 -663l-107 -107l-663 664v-502z" />
<glyph unicode="&#x2248;" d="M117 348q83 81 151.5 120.5t161.5 39.5q67 0 146.5 -29t149.5 -57.5t114 -28.5q64 0 107.5 22.5t94.5 73.5l111 -112q-83 -82 -151 -121t-162 -39q-52 0 -112 18.5t-105 41t-99 41t-96 18.5q-63 0 -106.5 -23.5t-96.5 -74.5zM117 739q83 81 151.5 120.5t161.5 39.5 q51 0 111.5 -18t106.5 -39.5t99.5 -39.5t92.5 -18q63 0 106.5 22.5t95.5 74.5l111 -115q-83 -82 -151 -121t-162 -39q-51 0 -110 18.5t-103.5 41t-99.5 41t-99 18.5q-63 0 -106.5 -23.5t-96.5 -74.5z" />
<glyph unicode="&#x2260;" d="M141 276v162h326l184 262h-510v162h623l160 230l118 -91l-98 -139h184v-162h-297l-184 -262h481v-162h-593l-170 -243l-117 90l106 153h-213z" />
<glyph unicode="&#x2264;" d="M10 623l543 540l109 -104l-359 -359h938v-151h-938l354 -354l-106 -109z" />
<glyph unicode="&#x2265;" d="M29 549v151h938l-359 359l109 104l543 -540l-541 -537l-107 109l355 354h-938z" />
<glyph unicode="&#x25ca;" d="M160 713q0 229 34 374t134 246q119 119 307 119t307 -119q100 -101 134 -246t34 -374t-34 -373.5t-134 -245.5q-121 -121 -307 -121t-307 121q-100 101 -134 245.5t-34 373.5zM342 628q0 -19 2 -79t6 -85t12.5 -73t20.5 -75.5t31.5 -60t44.5 -56.5q69 -66 176 -66t176 66 q25 24 44.5 56.5t31.5 60t20.5 75.5t12.5 73t6 85t2 79v85v85t-2 79t-6 85t-12.5 73t-20.5 75.5t-31.5 60t-44.5 56.5q-68 65 -176 65t-176 -65q-25 -24 -44.5 -56.5t-31.5 -60t-20.5 -75.5t-12.5 -73t-6 -85t-2 -79v-85v-85z" />
<glyph unicode="&#xe000;" horiz-adv-x="1034" d="M0 0v1034h1034v-1034h-1034z" />
</font>
</defs>
</svg>
